Coordinates
version=1
nRows=21
nColumns=22
inDegrees=yes

Units are S.I. units (second, meters, Newtons, ...)
If the header above contains a line with 'inDegrees', this indicates whether rotational values are in degrees (yes) or radians (no).

endheader
time	pelvis_tilt	pelvis_list	pelvis_rotation	pelvis_tx	pelvis_ty	pelvis_tz	hip_flexion_r	hip_adduction_r	hip_rotation_r	knee_angle_r	ankle_angle_r	subtalar_angle_r	hip_flexion_l	hip_adduction_l	hip_rotation_l	knee_angle_l	ankle_angle_l	subtalar_angle_l	lumbar_extension	lumbar_bending	lumbar_rotation
      0.01000000	      1.87978558	     -0.48481227	      2.34463256	     -1.75935438	      1.08343707	     -0.34671916	     -1.69032329	      0.68590366	     -5.17218154	    -11.07756353	     10.65537525	     -2.87279602	     -1.84499422	      0.51415036	      0.58327405	    -11.53261001	     12.27965066	     -1.49659350	     -4.16702138	     -1.41114801	     -5.81921577
      0.02000000	      1.88100658	     -0.49189527	      2.34236082	     -1.75936770	      1.08343667	     -0.34671230	     -1.69295694	      0.69518017	     -5.15304671	    -11.07300236	     10.66212310	     -2.87961933	     -1.83431725	      0.50662950	      0.58096349	    -11.55403803	     12.27746702	     -1.49557961	     -4.19234274	     -1.40967467	     -5.82826438
      0.03000000	      1.87546049	     -0.49470948	      2.33703653	     -1.75935178	      1.08343028	     -0.34670950	     -1.68889967	      0.69780510	     -5.15372470	    -11.06889468	     10.66235615	     -2.88019449	     -1.82993293	      0.50468978	      0.58076985	    -11.55239410	     12.27854896	     -1.49563943	     -4.20652855	     -1.41454906	     -5.82884959
      0.04000000	      1.87993012	     -0.49920912	      2.33033224	     -1.75937592	      1.08343316	     -0.34669901	     -1.68549713	      0.70278206	     -5.14194802	    -11.08079271	     10.65908036	     -2.88456589	     -1.82170545	      0.50015661	      0.57839161	    -11.57604360	     12.28568137	     -1.49648814	     -4.23944129	     -1.41989979	     -5.81768250
      0.05000000	      1.87439928	     -0.50217092	      2.32510116	     -1.75935996	      1.08342816	     -0.34670095	     -1.68149515	      0.70550608	     -5.14258668	    -11.07689602	     10.65946342	     -2.88494054	     -1.81751067	      0.49844848	      0.57731892	    -11.57412154	     12.28700738	     -1.49668223	     -4.25346047	     -1.42532884	     -5.81732589
      0.06000000	      1.87937662	     -0.50640873	      2.31705131	     -1.75937915	      1.08343280	     -0.34668942	     -1.67857671	      0.71017914	     -5.12977885	    -11.08972798	     10.65690809	     -2.88855904	     -1.81144712	      0.49385089	      0.56806816	    -11.59559719	     12.29558133	     -1.49862741	     -4.28494321	     -1.43256885	     -5.79599344
      0.07000000	      1.87389909	     -0.50924185	      2.31301647	     -1.75936227	      1.08342787	     -0.34669589	     -1.67483871	      0.71259882	     -5.13005465	    -11.08596948	     10.65732065	     -2.88884613	     -1.80815302	      0.49220475	      0.56620056	    -11.59237775	     12.29669400	     -1.49887178	     -4.29722997	     -1.43772755	     -5.79517927
      0.08000000	      1.86884528	     -0.51214009	      2.31125766	     -1.75934824	      1.08342410	     -0.34669976	     -1.67091283	      0.71551184	     -5.12920878	    -11.08386352	     10.65727574	     -2.88916591	     -1.80477400	      0.48970797	      0.56418580	    -11.58991357	     12.29772740	     -1.49922038	     -4.31057713	     -1.44429374	     -5.79230742
      0.09000000	      1.87880236	     -0.51842646	      2.27759044	     -1.75934155	      1.08343702	     -0.34665386	     -1.67244244	      0.72217908	     -5.08798031	    -11.09767700	     10.65245377	     -2.90048227	     -1.81726554	      0.48216803	      0.51033857	    -11.59163795	     12.31150628	     -1.50638526	     -4.34275790	     -1.44894577	     -5.73725716
      0.10000000	      1.87249882	     -0.52099015	      2.27744018	     -1.75932436	      1.08343265	     -0.34666163	     -1.66844373	      0.72467995	     -5.08780042	    -11.09386217	     10.65254674	     -2.90061479	     -1.81374857	      0.48027847	      0.51016684	    -11.58779680	     12.31125190	     -1.50642628	     -4.35544331	     -1.45486107	     -5.73638123
      0.11000000	      1.86598741	     -0.52363403	      2.27811371	     -1.75930612	      1.08342814	     -0.34666833	     -1.66410989	      0.72733884	     -5.08727211	    -11.09076953	     10.65223231	     -2.90075251	     -1.81017127	      0.47796865	      0.50976048	    -11.58356027	     12.31099072	     -1.50649048	     -4.36896802	     -1.46126653	     -5.73454559
      0.12000000	      1.85915082	     -0.52634067	      2.27862327	     -1.75928603	      1.08342330	     -0.34667425	     -1.65938261	      0.73003650	     -5.08664972	    -11.08788435	     10.65160931	     -2.90087875	     -1.80654193	      0.47559565	      0.50923019	    -11.57902844	     12.31072492	     -1.50653552	     -4.38324661	     -1.46768111	     -5.73228842
      0.13000000	      1.85195677	     -0.52912589	      2.27878580	     -1.75926349	      1.08341762	     -0.34667985	     -1.65432333	      0.73266913	     -5.08603508	    -11.08492416	     10.65078681	     -2.90095948	     -1.80279905	      0.47323688	      0.50858716	    -11.57428809	     12.31048096	     -1.50653816	     -4.39809353	     -1.47395738	     -5.73001647
      0.14000000	      1.84444176	     -0.53199296	      2.27865163	     -1.75923956	      1.08341168	     -0.34668588	     -1.64905216	      0.73528819	     -5.08540196	    -11.08179804	     10.64976601	     -2.90096617	     -1.79876184	      0.47087290	      0.50785118	    -11.56943482	     12.31024230	     -1.50649003	     -4.41342477	     -1.48013847	     -5.72783244
      0.15000000	      1.83656027	     -0.53500544	      2.27827345	     -1.75921321	      1.08340389	     -0.34669313	     -1.64375283	      0.73783401	     -5.08487509	    -11.07832971	     10.64865598	     -2.90086420	     -1.79447725	      0.46861056	      0.50705949	    -11.56474519	     12.31005334	     -1.50640663	     -4.42888052	     -1.48610548	     -5.72597240
      0.16000000	      1.82882085	     -0.53800860	      2.27780133	     -1.75918538	      1.08339802	     -0.34670176	     -1.63870215	      0.74032265	     -5.08443341	    -11.07464622	     10.64740957	     -2.90063808	     -1.78986574	      0.46640949	      0.50628411	    -11.56050921	     12.30990429	     -1.50630541	     -4.44378175	     -1.49174925	     -5.72430387
      0.17000000	      1.82071841	     -0.54121569	      2.27723191	     -1.75915656	      1.08338965	     -0.34671193	     -1.63385792	      0.74283971	     -5.08420425	    -11.07045233	     10.64603892	     -2.90027270	     -1.78482059	      0.46425652	      0.50555474	    -11.55677840	     12.30982253	     -1.50620995	     -4.45860695	     -1.49728992	     -5.72266627
      0.18000000	      1.81283317	     -0.54442491	      2.27663654	     -1.75912602	      1.08338274	     -0.34672413	     -1.62955107	      0.74528896	     -5.08421324	    -11.06589821	     10.64454444	     -2.89977623	     -1.77947675	      0.46220286	      0.50497756	    -11.55395538	     12.30981048	     -1.50614205	     -4.47244219	     -1.50245826	     -5.72077858
      0.19000000	      1.80506566	     -0.54767704	      2.27594995	     -1.75909592	      1.08337395	     -0.34673807	     -1.62562429	      0.74779920	     -5.08450749	    -11.06064008	     10.64283565	     -2.89912137	     -1.77356811	      0.46013174	      0.50462107	    -11.55218316	     12.30988172	     -1.50611963	     -4.48566141	     -1.50740655	     -5.71817071
      0.20000000	      1.79513359	     -0.55470463	      2.27867817	     -1.75907155	      1.08336261	     -0.34675046	     -1.62313110	      0.75530990	     -5.08162958	    -11.04798383	     10.62845815	     -2.89436505	     -1.75527564	      0.45355654	      0.50509151	    -11.56947164	     12.30997285	     -1.50624096	     -4.49608897	     -1.51177768	     -5.69630875
      0.21000000	      1.78727719	     -0.55791482	      2.27465227	     -1.75903759	      1.08335201	     -0.34677001	     -1.61935088	      0.75685595	     -5.08280559	    -11.04244104	     10.62774409	     -2.89372004	     -1.75019065	      0.45248272	      0.50452348	    -11.56681877	     12.31085725	     -1.50636874	     -4.50731767	     -1.51402367	     -5.69599411
